# xmcd
#
# Track frame offsets:
#	150
#	11835
#	28937
#	44565
#	65487
#	84120
#	101245
#	118512
#	133322
#	156140
#	170175
#	184257
#	198985
#	216775
#	230977
#	250532
#	263757
#
# Disc length: 3722 seconds
#
# Revision: 1
# Processed by: cddbd v1.5.2PL0 Copyright (c) Steve Scherf et al.
# Submitted via: EasyCDDAExtractor 8.2.3.1
#
DISCID=fb0e8811
DTITLE=Dwight Yoakam - Live Deluxe
DYEAR=1988
DGENRE=Country
TTITLE0=Hear Me Calling
TTITLE1=Guitars, Cadillacs and Hillbilly Music
TTITLE2=Down The Road
TTITLE3=Please Please Baby
TTITLE4=Readin' Rightin' and Route 23
TTITLE5=Walkin After Midnight
TTITLE6=I'll Be Gone
TTITLE7=Honky Tonk Man
TTITLE8=My Buckets Got A Whole In It
TTITLE9=Little Ways
TTITLE10=Little Sister
TTITLE11=Ring Of Fire
TTITLE12=The Road Is Rocky
TTITLE13=20 Years
TTITLE14=South Of Cincinatti
TTITLE15=Bury Me
TTITLE16=Jambalaya
EXTD=
EXTT0=
EXTT1=
EXTT2=
EXTT3=
EXTT4=
EXTT5=
EXTT6=
EXTT7=
EXTT8=
EXTT9=
EXTT10=
EXTT11=
EXTT12=
EXTT13=
EXTT14=
EXTT15=
EXTT16=
PLAYORDER=
